<?xml version="1.0" encoding="UTF-8"?>
<svg id="text_x5F_eng" xmlns="http://www.w3.org/2000/svg" width="5cm" height="5cm" version="1.1" viewBox="0 0 141.7 141.7">
  <!-- Generator: Adobe Illustrator 29.4.0, SVG Export Plug-In . SVG Version: 2.1.0 Build 152)  -->
  <defs>
    <style>
      .st0 {
        fill: #231f20;
      }

      .st1 {
        fill: #fff;
      }

      .st2 {
        fill: none;
        stroke: #000;
        stroke-linecap: round;
        stroke-linejoin: round;
        stroke-width: .5px;
      }
    </style>
  </defs>
  <path class="st0" d="M91.7,112.7c-.1,0-.2,0-.3.1,0,0-.1.2-.1.3v.9c-.2-.4-.6-.8-1.1-1.1-.5-.3-1-.4-1.6-.4s-1.2.2-1.7.5-.9.8-1.2,1.3c-.3.6-.4,1.2-.4,1.9s.1,1.4.4,2c.3.6.7,1,1.2,1.4s1.1.5,1.7.5,1.1-.1,1.6-.4c.5-.3.8-.7,1.1-1.1v1c0,.1,0,.2.1.3s.2.1.3.1.2,0,.3-.1.1-.2.1-.3v-6.4c0-.1,0-.2-.1-.3,0,0-.2-.1-.3-.1Z"/>
  <path class="st0" d="M54.6,116.3c0-.7-.2-1.4-.5-1.9-.3-.6-.7-1-1.3-1.4-.6-.3-1.2-.5-1.8-.5s-1.3.2-1.8.5c-.6.3-1,.8-1.3,1.4-.3.6-.5,1.2-.5,1.9s.2,1.4.5,1.9.7,1,1.3,1.4c.6.3,1.2.5,1.8.5s1.3-.2,1.8-.5c.6-.3,1-.8,1.3-1.4s.5-1.2.5-1.9Z"/>
  <path class="st0" d="M87.1,32.1c0-3.2-.7-6-2.1-8.6-1.4-2.5-3.4-4.5-5.9-5.9-2.5-1.4-5.2-2.1-8.2-2.1s-5.8.7-8.2,2.1c-2.5,1.4-4.4,3.4-5.8,5.9-1.4,2.5-2.1,5.4-2.1,8.6s.7,6,2.1,8.6c1.4,2.5,3.4,4.5,5.8,5.9,2.5,1.4,5.2,2.1,8.2,2.1s5.7-.7,8.2-2.1c2.5-1.4,4.4-3.3,5.9-5.9,1.4-2.5,2.1-5.4,2.1-8.6Z"/>
  <path class="st1" d="M79.9,32.1c0-1.9-.4-3.7-1.2-5.2-.8-1.5-1.9-2.7-3.3-3.5-1.4-.8-2.9-1.3-4.6-1.3s-3.2.4-4.6,1.3c-1.4.8-2.5,2-3.3,3.5-.8,1.5-1.2,3.3-1.2,5.2s.4,3.7,1.2,5.2c.8,1.5,1.9,2.7,3.3,3.5,1.4.8,2.9,1.3,4.6,1.3s3.2-.4,4.6-1.3c1.4-.8,2.5-2,3.3-3.5.8-1.5,1.2-3.2,1.2-5.2Z"/>
  <path class="st0" d="M70.1,111.6c-.2,0-.3,0-.4-.1,0,0-.1-.2-.1-.4h0c0-.5.2-.7.6-.7s.3,0,.4.1c.1,0,.2.2.2.4h0c0,.3,0,.4-.2.5-.1,0-.3.1-.4.1Z"/>
  <path class="st0" d="M95.3,119.6v-9.7c0-.1,0-.2-.1-.3s-.2-.1-.3-.1-.2,0-.3.1-.1.2-.1.3v9.7c0,.1,0,.2.1.3s.2.1.3.1.2,0,.3-.1.1-.2.1-.3Z"/>
  <path class="st1" d="M88.8,119.3c.5,0,.9-.1,1.3-.4.4-.3.7-.6.9-1.1s.3-1,.3-1.5-.1-1.1-.3-1.5c-.2-.5-.5-.8-.9-1.1-.4-.3-.8-.4-1.3-.4s-.9.1-1.3.4-.7.6-.9,1.1c-.2.5-.3,1-.3,1.5s.1,1.1.3,1.5.5.8.9,1.1c.4.3.8.4,1.3.4Z"/>
  <path class="st0" d="M81.1,112.7c-.5,0-1.1.2-1.6.5s-.9.7-1.1,1.1c-.2-.5-.5-.9-.9-1.2-.4-.3-.9-.4-1.4-.4s-.9.1-1.4.4-.8.6-1,1v-.8c0-.1,0-.2-.1-.3,0,0-.2-.1-.3-.1s-.2,0-.3.1-.1.2-.1.3v6.4c0,.1,0,.2.1.3s.2.1.3.1.2,0,.3-.1c0,0,.1-.2.1-.3v-4c0-.4.1-.7.3-1s.5-.6.8-.8c.3-.2.7-.3,1.1-.3.6,0,1.1.2,1.3.6.3.4.4.9.4,1.5v4c0,.1,0,.2.1.3,0,0,.2.1.3.1s.2,0,.3-.1.1-.2.1-.3v-4c0-.4.1-.7.3-1.1s.5-.6.9-.8.7-.3,1.1-.3c.6,0,1.1.2,1.4.6s.4.9.4,1.5v4c0,.1,0,.2.1.3,0,0,.2.1.3.1s.2,0,.3-.1.1-.2.1-.3v-4c0-.9-.2-1.6-.6-2.1-.4-.5-1-.8-1.9-.8Z"/>
  <path class="st0" d="M70.6,119.6v-6.6c0-.1,0-.2-.1-.3s-.2-.1-.3-.1-.2,0-.3.1c0,0-.1.2-.1.3v6.6c0,.1,0,.2.1.3,0,0,.2.1.3.1s.2,0,.3-.1.1-.2.1-.3Z"/>
  <path class="st0" d="M66.4,118.3v-4.8h1.4c.1,0,.2,0,.3-.1,0,0,.1-.2.1-.3s0-.2-.1-.3c0,0-.2-.1-.3-.1h-1.4v-1.6c0-.1,0-.2-.1-.3,0,0-.2-.1-.3-.1s-.2,0-.3.1-.1.2-.1.3v1.6h-1c-.1,0-.2,0-.3.1,0,0-.1.2-.1.3s0,.2.1.3c0,0,.2.1.3.1h1v4.8c0,.5,0,.9.3,1.1.2.2.4.4.6.4.2,0,.4,0,.7,0s.4,0,.5-.1c.2,0,.2-.2.2-.3s0-.2,0-.2c0,0-.1-.1-.2-.1s-.1,0-.2,0c0,0-.2,0-.2,0-.2,0-.4,0-.5-.2-.1-.1-.2-.4-.2-.7Z"/>
  <path class="st0" d="M59.8,112.7c-.6,0-1.1.1-1.5.4s-.8.6-1.1,1.1v-1c0-.1,0-.2-.1-.3,0,0-.2-.1-.3-.1s-.2,0-.3.1c0,0-.1.2-.1.3v9.3c0,.1,0,.2.1.3s.2.1.3.1.2,0,.3-.1.1-.2.1-.3v-3.8c.3.4.6.8,1.1,1,.5.3,1,.4,1.5.4s1.2-.2,1.7-.5c.5-.3.9-.8,1.2-1.3.3-.6.4-1.2.4-1.9s-.1-1.3-.4-1.9-.7-1-1.2-1.3c-.5-.3-1.1-.5-1.7-.5Z"/>
  <path class="st1" d="M53.7,116.3c0-.6-.1-1.1-.4-1.5-.2-.5-.6-.8-1-1.1s-.9-.4-1.4-.4-1,.1-1.4.4-.7.6-1,1.1c-.2.5-.4,1-.4,1.5s.1,1.1.4,1.5c.2.5.6.8,1,1.1.4.3.9.4,1.4.4s1-.1,1.4-.4.8-.6,1-1.1c.2-.5.4-1,.4-1.5Z"/>
  <path class="st0" d="M21.8,61.1c-2.1,0-4,.5-5.7,1.6-1.7,1-3.1,2.3-4.2,3.7v-1c0-1-.3-1.9-1-2.6-.7-.7-1.5-1-2.6-1s-1.9.3-2.6,1-1,1.6-1,2.6v24.6c0,1,.3,1.9,1,2.6s1.5,1,2.6,1,1.9-.3,2.6-1c.7-.7,1-1.6,1-2.6v-15.3c0-2,.7-3.7,2-5,1.3-1.3,3.1-2,5.4-2s3.8.6,4.7,1.9,1.4,3,1.4,5.2v15.3c0,1,.3,1.9,1,2.6s1.5,1,2.6,1,1.9-.3,2.6-1,1-1.6,1-2.6v-15.3c0-4.3-.8-7.6-2.3-10-1.6-2.4-4.4-3.6-8.4-3.6Z"/>
  <path class="st0" d="M126.3,61.1c-2.1,0-4,.5-5.7,1.6-1.7,1-3.1,2.3-4.2,3.7v-1c0-1-.3-1.9-1-2.6-.7-.7-1.5-1-2.6-1s-1.9.3-2.6,1c-.7.7-1,1.6-1,2.6v24.6c0,1,.3,1.9,1,2.6.7.7,1.5,1,2.6,1s1.9-.3,2.6-1c.7-.7,1-1.6,1-2.6v-15.3c0-2,.7-3.7,2-5s3.1-2,5.4-2,3.8.6,4.7,1.9c.9,1.3,1.4,3,1.4,5.2v15.3c0,1,.3,1.9,1,2.6.7.7,1.5,1,2.6,1s1.9-.3,2.6-1c.7-.7,1-1.6,1-2.6v-15.3c0-4.3-.8-7.6-2.3-10-1.6-2.4-4.4-3.6-8.4-3.6Z"/>
  <line class="st2" x1="137.2" y1="4.5" x2="4.5" y2="137.2"/>
  <line class="st2" x1="137.2" y1="137.2" x2="4.5" y2="4.5"/>
  <path class="st1" d="M59.7,119.3c.5,0,.9-.1,1.3-.4.4-.3.7-.6.9-1,.2-.4.3-1,.3-1.5s-.1-1-.3-1.5c-.2-.4-.5-.8-.9-1s-.8-.4-1.3-.4-1,.1-1.4.4c-.4.2-.7.6-.9,1s-.3.9-.3,1.5.1,1.1.3,1.5c.2.4.5.8.9,1,.4.3.9.4,1.4.4Z"/>
</svg>