G04 #@! TF.GenerationSoftware,KiCad,Pcbnew,9.0.1*
G04 #@! TF.CreationDate,2025-04-22T18:15:32+02:00*
G04 #@! TF.ProjectId,camera_cable,63616d65-7261-45f6-9361-626c652e6b69,rev?*
G04 #@! TF.SameCoordinates,Original*
G04 #@! TF.FileFunction,Profile,NP*
%FSLAX46Y46*%
G04 Gerber Fmt 4.6, Leading zero omitted, Abs format (unit mm)*
G04 Created by KiCad (PCBNEW 9.0.1) date 2025-04-22 18:15:32*
%MOMM*%
%LPD*%
G01*
G04 APERTURE LIST*
G04 #@! TA.AperFunction,Profile*
%ADD10C,0.038100*%
G04 #@! TD*
G04 APERTURE END LIST*
D10*
X93623654Y-47003008D02*
X92463254Y-45903084D01*
X103350774Y-41850419D02*
X103250911Y-86938487D01*
X61488932Y-89142197D02*
G75*
G02*
X61200018Y-88439074I711068J703097D01*
G01*
X62200000Y-78300000D02*
X76211049Y-78300000D01*
X77200000Y-78300000D02*
X76211049Y-78300000D01*
X77200000Y-86785786D02*
X77200000Y-86640000D01*
X92434381Y-97800000D02*
X70467508Y-97800000D01*
X86900000Y-45590855D02*
X91730000Y-45590000D01*
X62200000Y-78300000D02*
X61200000Y-78300000D01*
X87900854Y-34110855D02*
X86900000Y-34110855D01*
X93143181Y-97505409D02*
G75*
G02*
X92434381Y-97799986I-708781J705409D01*
G01*
X93999444Y-84235002D02*
X93950591Y-47741255D01*
X77200000Y-86640000D02*
X77200000Y-78300000D01*
X90842893Y-87807107D02*
G75*
G02*
X90135786Y-88099961I-707093J707207D01*
G01*
X77588302Y-87588302D02*
X77492893Y-87492893D01*
X90842893Y-87807107D02*
X93706552Y-84943448D01*
X87900854Y-34110855D02*
X95440822Y-34117292D01*
X96137689Y-34400923D02*
X103048497Y-41131835D01*
X78514214Y-88100000D02*
X90135786Y-88100000D01*
X91730000Y-45590000D02*
G75*
G02*
X92456737Y-45903084I0J-1000000D01*
G01*
X93999444Y-84235002D02*
G75*
G02*
X93706561Y-84943457I-1000144J-1298D01*
G01*
X61200000Y-88439074D02*
X61200000Y-79300000D01*
X102959714Y-87641681D02*
X93143181Y-97505409D01*
X61200000Y-79300000D02*
X61200000Y-78300000D01*
X103048497Y-41131835D02*
G75*
G02*
X103350777Y-41850419I-697697J-716365D01*
G01*
X70467508Y-97800000D02*
G75*
G02*
X69756436Y-97503127I-8J1000000D01*
G01*
X77588302Y-87588302D02*
X77807107Y-87807107D01*
X95440822Y-34117292D02*
G75*
G02*
X96137707Y-34400905I-822J-1000008D01*
G01*
X86900000Y-34110855D02*
X86900000Y-45590855D01*
X103250911Y-86938487D02*
G75*
G02*
X102959689Y-87641657I-999811J2187D01*
G01*
X69756440Y-97503123D02*
X61488932Y-89142197D01*
X93623654Y-47003008D02*
G75*
G02*
X93950598Y-47741255I-673054J-739592D01*
G01*
X77492893Y-87492893D02*
G75*
G02*
X77200010Y-86785786I707107J707093D01*
G01*
X78514214Y-88100000D02*
G75*
G02*
X77807121Y-87807093I-14J999900D01*
G01*
M02*
