G04 #@! TF.GenerationSoftware,KiCad,Pcbnew,9.0.1*
G04 #@! TF.CreationDate,2025-04-22T18:15:32+02:00*
G04 #@! TF.ProjectId,camera_cable,63616d65-7261-45f6-9361-626c652e6b69,rev?*
G04 #@! TF.SameCoordinates,Original*
G04 #@! TF.FileFunction,OtherDrawing,Comment*
%FSLAX46Y46*%
G04 Gerber Fmt 4.6, Leading zero omitted, Abs format (unit mm)*
G04 Created by KiCad (PCBNEW 9.0.1) date 2025-04-22 18:15:32*
%MOMM*%
%LPD*%
G01*
G04 APERTURE LIST*
%ADD10C,0.100000*%
%ADD11C,0.150000*%
G04 APERTURE END LIST*
D10*
X61200000Y-78300000D02*
X77200000Y-78300000D01*
X77200000Y-85060000D01*
X61200000Y-85060000D01*
X61200000Y-78300000D01*
X86900000Y-34110855D02*
X91730000Y-34110855D01*
X91730000Y-45590000D01*
X86900000Y-45590000D01*
X86900000Y-34110855D01*
D11*
X85022200Y-48110839D02*
X85069819Y-47967982D01*
X85069819Y-47967982D02*
X85069819Y-47729887D01*
X85069819Y-47729887D02*
X85022200Y-47634649D01*
X85022200Y-47634649D02*
X84974580Y-47587030D01*
X84974580Y-47587030D02*
X84879342Y-47539411D01*
X84879342Y-47539411D02*
X84784104Y-47539411D01*
X84784104Y-47539411D02*
X84688866Y-47587030D01*
X84688866Y-47587030D02*
X84641247Y-47634649D01*
X84641247Y-47634649D02*
X84593628Y-47729887D01*
X84593628Y-47729887D02*
X84546009Y-47920363D01*
X84546009Y-47920363D02*
X84498390Y-48015601D01*
X84498390Y-48015601D02*
X84450771Y-48063220D01*
X84450771Y-48063220D02*
X84355533Y-48110839D01*
X84355533Y-48110839D02*
X84260295Y-48110839D01*
X84260295Y-48110839D02*
X84165057Y-48063220D01*
X84165057Y-48063220D02*
X84117438Y-48015601D01*
X84117438Y-48015601D02*
X84069819Y-47920363D01*
X84069819Y-47920363D02*
X84069819Y-47682268D01*
X84069819Y-47682268D02*
X84117438Y-47539411D01*
X84069819Y-47253696D02*
X84069819Y-46682268D01*
X85069819Y-46967982D02*
X84069819Y-46967982D01*
X85069819Y-46348934D02*
X84069819Y-46348934D01*
X84546009Y-45539411D02*
X84546009Y-45872744D01*
X85069819Y-45872744D02*
X84069819Y-45872744D01*
X84069819Y-45872744D02*
X84069819Y-45396554D01*
X84546009Y-44682268D02*
X84546009Y-45015601D01*
X85069819Y-45015601D02*
X84069819Y-45015601D01*
X84069819Y-45015601D02*
X84069819Y-44539411D01*
X84546009Y-44158458D02*
X84546009Y-43825125D01*
X85069819Y-43682268D02*
X85069819Y-44158458D01*
X85069819Y-44158458D02*
X84069819Y-44158458D01*
X84069819Y-44158458D02*
X84069819Y-43682268D01*
X85069819Y-43253696D02*
X84069819Y-43253696D01*
X84069819Y-43253696D02*
X85069819Y-42682268D01*
X85069819Y-42682268D02*
X84069819Y-42682268D01*
X84546009Y-42206077D02*
X84546009Y-41872744D01*
X85069819Y-41729887D02*
X85069819Y-42206077D01*
X85069819Y-42206077D02*
X84069819Y-42206077D01*
X84069819Y-42206077D02*
X84069819Y-41729887D01*
X85069819Y-40729887D02*
X84593628Y-41063220D01*
X85069819Y-41301315D02*
X84069819Y-41301315D01*
X84069819Y-41301315D02*
X84069819Y-40920363D01*
X84069819Y-40920363D02*
X84117438Y-40825125D01*
X84117438Y-40825125D02*
X84165057Y-40777506D01*
X84165057Y-40777506D02*
X84260295Y-40729887D01*
X84260295Y-40729887D02*
X84403152Y-40729887D01*
X84403152Y-40729887D02*
X84498390Y-40777506D01*
X84498390Y-40777506D02*
X84546009Y-40825125D01*
X84546009Y-40825125D02*
X84593628Y-40920363D01*
X84593628Y-40920363D02*
X84593628Y-41301315D01*
X84974580Y-40301315D02*
X85022200Y-40253696D01*
X85022200Y-40253696D02*
X85069819Y-40301315D01*
X85069819Y-40301315D02*
X85022200Y-40348934D01*
X85022200Y-40348934D02*
X84974580Y-40301315D01*
X84974580Y-40301315D02*
X85069819Y-40301315D01*
X84450771Y-40301315D02*
X84498390Y-40253696D01*
X84498390Y-40253696D02*
X84546009Y-40301315D01*
X84546009Y-40301315D02*
X84498390Y-40348934D01*
X84498390Y-40348934D02*
X84450771Y-40301315D01*
X84450771Y-40301315D02*
X84546009Y-40301315D01*
X84069819Y-38872744D02*
X84069819Y-38777506D01*
X84069819Y-38777506D02*
X84117438Y-38682268D01*
X84117438Y-38682268D02*
X84165057Y-38634649D01*
X84165057Y-38634649D02*
X84260295Y-38587030D01*
X84260295Y-38587030D02*
X84450771Y-38539411D01*
X84450771Y-38539411D02*
X84688866Y-38539411D01*
X84688866Y-38539411D02*
X84879342Y-38587030D01*
X84879342Y-38587030D02*
X84974580Y-38634649D01*
X84974580Y-38634649D02*
X85022200Y-38682268D01*
X85022200Y-38682268D02*
X85069819Y-38777506D01*
X85069819Y-38777506D02*
X85069819Y-38872744D01*
X85069819Y-38872744D02*
X85022200Y-38967982D01*
X85022200Y-38967982D02*
X84974580Y-39015601D01*
X84974580Y-39015601D02*
X84879342Y-39063220D01*
X84879342Y-39063220D02*
X84688866Y-39110839D01*
X84688866Y-39110839D02*
X84450771Y-39110839D01*
X84450771Y-39110839D02*
X84260295Y-39063220D01*
X84260295Y-39063220D02*
X84165057Y-39015601D01*
X84165057Y-39015601D02*
X84117438Y-38967982D01*
X84117438Y-38967982D02*
X84069819Y-38872744D01*
X84974580Y-38110839D02*
X85022200Y-38063220D01*
X85022200Y-38063220D02*
X85069819Y-38110839D01*
X85069819Y-38110839D02*
X85022200Y-38158458D01*
X85022200Y-38158458D02*
X84974580Y-38110839D01*
X84974580Y-38110839D02*
X85069819Y-38110839D01*
X84165057Y-37682268D02*
X84117438Y-37634649D01*
X84117438Y-37634649D02*
X84069819Y-37539411D01*
X84069819Y-37539411D02*
X84069819Y-37301316D01*
X84069819Y-37301316D02*
X84117438Y-37206078D01*
X84117438Y-37206078D02*
X84165057Y-37158459D01*
X84165057Y-37158459D02*
X84260295Y-37110840D01*
X84260295Y-37110840D02*
X84355533Y-37110840D01*
X84355533Y-37110840D02*
X84498390Y-37158459D01*
X84498390Y-37158459D02*
X85069819Y-37729887D01*
X85069819Y-37729887D02*
X85069819Y-37110840D01*
X84069819Y-36206078D02*
X84069819Y-36682268D01*
X84069819Y-36682268D02*
X84546009Y-36729887D01*
X84546009Y-36729887D02*
X84498390Y-36682268D01*
X84498390Y-36682268D02*
X84450771Y-36587030D01*
X84450771Y-36587030D02*
X84450771Y-36348935D01*
X84450771Y-36348935D02*
X84498390Y-36253697D01*
X84498390Y-36253697D02*
X84546009Y-36206078D01*
X84546009Y-36206078D02*
X84641247Y-36158459D01*
X84641247Y-36158459D02*
X84879342Y-36158459D01*
X84879342Y-36158459D02*
X84974580Y-36206078D01*
X84974580Y-36206078D02*
X85022200Y-36253697D01*
X85022200Y-36253697D02*
X85069819Y-36348935D01*
X85069819Y-36348935D02*
X85069819Y-36587030D01*
X85069819Y-36587030D02*
X85022200Y-36682268D01*
X85022200Y-36682268D02*
X84974580Y-36729887D01*
X85069819Y-34967982D02*
X84403152Y-34967982D01*
X84498390Y-34967982D02*
X84450771Y-34920363D01*
X84450771Y-34920363D02*
X84403152Y-34825125D01*
X84403152Y-34825125D02*
X84403152Y-34682268D01*
X84403152Y-34682268D02*
X84450771Y-34587030D01*
X84450771Y-34587030D02*
X84546009Y-34539411D01*
X84546009Y-34539411D02*
X85069819Y-34539411D01*
X84546009Y-34539411D02*
X84450771Y-34491792D01*
X84450771Y-34491792D02*
X84403152Y-34396554D01*
X84403152Y-34396554D02*
X84403152Y-34253697D01*
X84403152Y-34253697D02*
X84450771Y-34158458D01*
X84450771Y-34158458D02*
X84546009Y-34110839D01*
X84546009Y-34110839D02*
X85069819Y-34110839D01*
X85069819Y-33634649D02*
X84403152Y-33634649D01*
X84498390Y-33634649D02*
X84450771Y-33587030D01*
X84450771Y-33587030D02*
X84403152Y-33491792D01*
X84403152Y-33491792D02*
X84403152Y-33348935D01*
X84403152Y-33348935D02*
X84450771Y-33253697D01*
X84450771Y-33253697D02*
X84546009Y-33206078D01*
X84546009Y-33206078D02*
X85069819Y-33206078D01*
X84546009Y-33206078D02*
X84450771Y-33158459D01*
X84450771Y-33158459D02*
X84403152Y-33063221D01*
X84403152Y-33063221D02*
X84403152Y-32920364D01*
X84403152Y-32920364D02*
X84450771Y-32825125D01*
X84450771Y-32825125D02*
X84546009Y-32777506D01*
X84546009Y-32777506D02*
X85069819Y-32777506D01*
X85069819Y-31539411D02*
X84069819Y-31539411D01*
X84069819Y-31539411D02*
X84069819Y-31158459D01*
X84069819Y-31158459D02*
X84117438Y-31063221D01*
X84117438Y-31063221D02*
X84165057Y-31015602D01*
X84165057Y-31015602D02*
X84260295Y-30967983D01*
X84260295Y-30967983D02*
X84403152Y-30967983D01*
X84403152Y-30967983D02*
X84498390Y-31015602D01*
X84498390Y-31015602D02*
X84546009Y-31063221D01*
X84546009Y-31063221D02*
X84593628Y-31158459D01*
X84593628Y-31158459D02*
X84593628Y-31539411D01*
X85069819Y-30539411D02*
X84069819Y-30539411D01*
X61489160Y-76322200D02*
X61632017Y-76369819D01*
X61632017Y-76369819D02*
X61870112Y-76369819D01*
X61870112Y-76369819D02*
X61965350Y-76322200D01*
X61965350Y-76322200D02*
X62012969Y-76274580D01*
X62012969Y-76274580D02*
X62060588Y-76179342D01*
X62060588Y-76179342D02*
X62060588Y-76084104D01*
X62060588Y-76084104D02*
X62012969Y-75988866D01*
X62012969Y-75988866D02*
X61965350Y-75941247D01*
X61965350Y-75941247D02*
X61870112Y-75893628D01*
X61870112Y-75893628D02*
X61679636Y-75846009D01*
X61679636Y-75846009D02*
X61584398Y-75798390D01*
X61584398Y-75798390D02*
X61536779Y-75750771D01*
X61536779Y-75750771D02*
X61489160Y-75655533D01*
X61489160Y-75655533D02*
X61489160Y-75560295D01*
X61489160Y-75560295D02*
X61536779Y-75465057D01*
X61536779Y-75465057D02*
X61584398Y-75417438D01*
X61584398Y-75417438D02*
X61679636Y-75369819D01*
X61679636Y-75369819D02*
X61917731Y-75369819D01*
X61917731Y-75369819D02*
X62060588Y-75417438D01*
X62346303Y-75369819D02*
X62917731Y-75369819D01*
X62632017Y-76369819D02*
X62632017Y-75369819D01*
X63251065Y-76369819D02*
X63251065Y-75369819D01*
X64060588Y-75846009D02*
X63727255Y-75846009D01*
X63727255Y-76369819D02*
X63727255Y-75369819D01*
X63727255Y-75369819D02*
X64203445Y-75369819D01*
X64917731Y-75846009D02*
X64584398Y-75846009D01*
X64584398Y-76369819D02*
X64584398Y-75369819D01*
X64584398Y-75369819D02*
X65060588Y-75369819D01*
X65441541Y-75846009D02*
X65774874Y-75846009D01*
X65917731Y-76369819D02*
X65441541Y-76369819D01*
X65441541Y-76369819D02*
X65441541Y-75369819D01*
X65441541Y-75369819D02*
X65917731Y-75369819D01*
X66346303Y-76369819D02*
X66346303Y-75369819D01*
X66346303Y-75369819D02*
X66917731Y-76369819D01*
X66917731Y-76369819D02*
X66917731Y-75369819D01*
X67393922Y-75846009D02*
X67727255Y-75846009D01*
X67870112Y-76369819D02*
X67393922Y-76369819D01*
X67393922Y-76369819D02*
X67393922Y-75369819D01*
X67393922Y-75369819D02*
X67870112Y-75369819D01*
X68870112Y-76369819D02*
X68536779Y-75893628D01*
X68298684Y-76369819D02*
X68298684Y-75369819D01*
X68298684Y-75369819D02*
X68679636Y-75369819D01*
X68679636Y-75369819D02*
X68774874Y-75417438D01*
X68774874Y-75417438D02*
X68822493Y-75465057D01*
X68822493Y-75465057D02*
X68870112Y-75560295D01*
X68870112Y-75560295D02*
X68870112Y-75703152D01*
X68870112Y-75703152D02*
X68822493Y-75798390D01*
X68822493Y-75798390D02*
X68774874Y-75846009D01*
X68774874Y-75846009D02*
X68679636Y-75893628D01*
X68679636Y-75893628D02*
X68298684Y-75893628D01*
X69298684Y-76274580D02*
X69346303Y-76322200D01*
X69346303Y-76322200D02*
X69298684Y-76369819D01*
X69298684Y-76369819D02*
X69251065Y-76322200D01*
X69251065Y-76322200D02*
X69298684Y-76274580D01*
X69298684Y-76274580D02*
X69298684Y-76369819D01*
X69298684Y-75750771D02*
X69346303Y-75798390D01*
X69346303Y-75798390D02*
X69298684Y-75846009D01*
X69298684Y-75846009D02*
X69251065Y-75798390D01*
X69251065Y-75798390D02*
X69298684Y-75750771D01*
X69298684Y-75750771D02*
X69298684Y-75846009D01*
X70727255Y-75369819D02*
X70822493Y-75369819D01*
X70822493Y-75369819D02*
X70917731Y-75417438D01*
X70917731Y-75417438D02*
X70965350Y-75465057D01*
X70965350Y-75465057D02*
X71012969Y-75560295D01*
X71012969Y-75560295D02*
X71060588Y-75750771D01*
X71060588Y-75750771D02*
X71060588Y-75988866D01*
X71060588Y-75988866D02*
X71012969Y-76179342D01*
X71012969Y-76179342D02*
X70965350Y-76274580D01*
X70965350Y-76274580D02*
X70917731Y-76322200D01*
X70917731Y-76322200D02*
X70822493Y-76369819D01*
X70822493Y-76369819D02*
X70727255Y-76369819D01*
X70727255Y-76369819D02*
X70632017Y-76322200D01*
X70632017Y-76322200D02*
X70584398Y-76274580D01*
X70584398Y-76274580D02*
X70536779Y-76179342D01*
X70536779Y-76179342D02*
X70489160Y-75988866D01*
X70489160Y-75988866D02*
X70489160Y-75750771D01*
X70489160Y-75750771D02*
X70536779Y-75560295D01*
X70536779Y-75560295D02*
X70584398Y-75465057D01*
X70584398Y-75465057D02*
X70632017Y-75417438D01*
X70632017Y-75417438D02*
X70727255Y-75369819D01*
X71489160Y-76274580D02*
X71536779Y-76322200D01*
X71536779Y-76322200D02*
X71489160Y-76369819D01*
X71489160Y-76369819D02*
X71441541Y-76322200D01*
X71441541Y-76322200D02*
X71489160Y-76274580D01*
X71489160Y-76274580D02*
X71489160Y-76369819D01*
X71917731Y-75465057D02*
X71965350Y-75417438D01*
X71965350Y-75417438D02*
X72060588Y-75369819D01*
X72060588Y-75369819D02*
X72298683Y-75369819D01*
X72298683Y-75369819D02*
X72393921Y-75417438D01*
X72393921Y-75417438D02*
X72441540Y-75465057D01*
X72441540Y-75465057D02*
X72489159Y-75560295D01*
X72489159Y-75560295D02*
X72489159Y-75655533D01*
X72489159Y-75655533D02*
X72441540Y-75798390D01*
X72441540Y-75798390D02*
X71870112Y-76369819D01*
X71870112Y-76369819D02*
X72489159Y-76369819D01*
X73393921Y-75369819D02*
X72917731Y-75369819D01*
X72917731Y-75369819D02*
X72870112Y-75846009D01*
X72870112Y-75846009D02*
X72917731Y-75798390D01*
X72917731Y-75798390D02*
X73012969Y-75750771D01*
X73012969Y-75750771D02*
X73251064Y-75750771D01*
X73251064Y-75750771D02*
X73346302Y-75798390D01*
X73346302Y-75798390D02*
X73393921Y-75846009D01*
X73393921Y-75846009D02*
X73441540Y-75941247D01*
X73441540Y-75941247D02*
X73441540Y-76179342D01*
X73441540Y-76179342D02*
X73393921Y-76274580D01*
X73393921Y-76274580D02*
X73346302Y-76322200D01*
X73346302Y-76322200D02*
X73251064Y-76369819D01*
X73251064Y-76369819D02*
X73012969Y-76369819D01*
X73012969Y-76369819D02*
X72917731Y-76322200D01*
X72917731Y-76322200D02*
X72870112Y-76274580D01*
X74632017Y-76369819D02*
X74632017Y-75703152D01*
X74632017Y-75798390D02*
X74679636Y-75750771D01*
X74679636Y-75750771D02*
X74774874Y-75703152D01*
X74774874Y-75703152D02*
X74917731Y-75703152D01*
X74917731Y-75703152D02*
X75012969Y-75750771D01*
X75012969Y-75750771D02*
X75060588Y-75846009D01*
X75060588Y-75846009D02*
X75060588Y-76369819D01*
X75060588Y-75846009D02*
X75108207Y-75750771D01*
X75108207Y-75750771D02*
X75203445Y-75703152D01*
X75203445Y-75703152D02*
X75346302Y-75703152D01*
X75346302Y-75703152D02*
X75441541Y-75750771D01*
X75441541Y-75750771D02*
X75489160Y-75846009D01*
X75489160Y-75846009D02*
X75489160Y-76369819D01*
X75965350Y-76369819D02*
X75965350Y-75703152D01*
X75965350Y-75798390D02*
X76012969Y-75750771D01*
X76012969Y-75750771D02*
X76108207Y-75703152D01*
X76108207Y-75703152D02*
X76251064Y-75703152D01*
X76251064Y-75703152D02*
X76346302Y-75750771D01*
X76346302Y-75750771D02*
X76393921Y-75846009D01*
X76393921Y-75846009D02*
X76393921Y-76369819D01*
X76393921Y-75846009D02*
X76441540Y-75750771D01*
X76441540Y-75750771D02*
X76536778Y-75703152D01*
X76536778Y-75703152D02*
X76679635Y-75703152D01*
X76679635Y-75703152D02*
X76774874Y-75750771D01*
X76774874Y-75750771D02*
X76822493Y-75846009D01*
X76822493Y-75846009D02*
X76822493Y-76369819D01*
X78060588Y-76369819D02*
X78060588Y-75369819D01*
X78060588Y-75369819D02*
X78441540Y-75369819D01*
X78441540Y-75369819D02*
X78536778Y-75417438D01*
X78536778Y-75417438D02*
X78584397Y-75465057D01*
X78584397Y-75465057D02*
X78632016Y-75560295D01*
X78632016Y-75560295D02*
X78632016Y-75703152D01*
X78632016Y-75703152D02*
X78584397Y-75798390D01*
X78584397Y-75798390D02*
X78536778Y-75846009D01*
X78536778Y-75846009D02*
X78441540Y-75893628D01*
X78441540Y-75893628D02*
X78060588Y-75893628D01*
X79060588Y-76369819D02*
X79060588Y-75369819D01*
M02*
