%TF.GenerationSoftware,KiCad,Pcbnew,9.0.1*%
%TF.CreationDate,2025-04-22T18:15:32+02:00*%
%TF.ProjectId,camera_cable,63616d65-7261-45f6-9361-626c652e6b69,rev?*%
%TF.SameCoordinates,Original*%
%TF.FileFunction,Drillmap*%
%TF.FilePolarity,Positive*%
%FSLAX45Y45*%
G04 Gerber Fmt 4.5, Leading zero omitted, Abs format (unit mm)*
G04 Created by KiCad (PCBNEW 9.0.1) date 2025-04-22 18:15:32*
%MOMM*%
%LPD*%
G01*
G04 APERTURE LIST*
%ADD10C,0.038100*%
%ADD11C,0.200000*%
%ADD12C,0.100000*%
G04 APERTURE END LIST*
D10*
X9362365Y-4700301D02*
X9246325Y-4590308D01*
X10335077Y-4185042D02*
X10325091Y-8693849D01*
X6148893Y-8914220D02*
G75*
G02*
X6120002Y-8843907I71107J70310D01*
G01*
X6220000Y-7830000D02*
X7621105Y-7830000D01*
X7720000Y-7830000D02*
X7621105Y-7830000D01*
X7720000Y-8678579D02*
X7720000Y-8664000D01*
X9243438Y-9780000D02*
X7046751Y-9780000D01*
X8690000Y-4559086D02*
X9173000Y-4559000D01*
X6220000Y-7830000D02*
X6120000Y-7830000D01*
X8790085Y-3411085D02*
X8690000Y-3411085D01*
X9314318Y-9750541D02*
G75*
G02*
X9243438Y-9779999I-70878J70541D01*
G01*
X9399944Y-8423500D02*
X9395059Y-4774126D01*
X7720000Y-8664000D02*
X7720000Y-7830000D01*
X9084289Y-8780711D02*
G75*
G02*
X9013579Y-8809996I-70709J70721D01*
G01*
X7758830Y-8758830D02*
X7749289Y-8749289D01*
X9084289Y-8780711D02*
X9370655Y-8494345D01*
X8790085Y-3411085D02*
X9544082Y-3411729D01*
X9613769Y-3440092D02*
X10304850Y-4113183D01*
X7851421Y-8810000D02*
X9013579Y-8810000D01*
X9173000Y-4559000D02*
G75*
G02*
X9245674Y-4590308I0J-100000D01*
G01*
X9399944Y-8423500D02*
G75*
G02*
X9370656Y-8494346I-100014J-130D01*
G01*
X6120000Y-8843907D02*
X6120000Y-7930000D01*
X10295971Y-8764168D02*
X9314318Y-9750541D01*
X6120000Y-7930000D02*
X6120000Y-7830000D01*
X10304850Y-4113183D02*
G75*
G02*
X10335078Y-4185042I-69770J-71637D01*
G01*
X7046751Y-9780000D02*
G75*
G02*
X6975644Y-9750313I-1J100000D01*
G01*
X7758830Y-8758830D02*
X7780711Y-8780711D01*
X9544082Y-3411729D02*
G75*
G02*
X9613771Y-3440090I-82J-100001D01*
G01*
X8690000Y-3411085D02*
X8690000Y-4559086D01*
X10325091Y-8693849D02*
G75*
G02*
X10295969Y-8764166I-99981J219D01*
G01*
X6975644Y-9750312D02*
X6148893Y-8914220D01*
X9362365Y-4700301D02*
G75*
G02*
X9395060Y-4774126I-67305J-73959D01*
G01*
X7749289Y-8749289D02*
G75*
G02*
X7720001Y-8678579I70711J70709D01*
G01*
X7851421Y-8810000D02*
G75*
G02*
X7780712Y-8780709I-1J99990D01*
G01*
D11*
D12*
X6210000Y-8410000D02*
X6240000Y-8440000D01*
X6240000Y-8410000D02*
X6210000Y-8440000D01*
X6505000Y-8415000D02*
X6535000Y-8445000D01*
X6535000Y-8415000D02*
X6505000Y-8445000D01*
X6805000Y-8415000D02*
X6835000Y-8445000D01*
X6835000Y-8415000D02*
X6805000Y-8445000D01*
X7105000Y-8415000D02*
X7135000Y-8445000D01*
X7135000Y-8415000D02*
X7105000Y-8445000D01*
X9205000Y-3445000D02*
X9235000Y-3475000D01*
X9235000Y-3445000D02*
X9205000Y-3475000D01*
X9205000Y-3595000D02*
X9235000Y-3625000D01*
X9235000Y-3595000D02*
X9205000Y-3625000D01*
X9205000Y-3745000D02*
X9235000Y-3775000D01*
X9235000Y-3745000D02*
X9205000Y-3775000D01*
X9205000Y-4065000D02*
X9235000Y-4095000D01*
X9235000Y-4065000D02*
X9205000Y-4095000D01*
X9205000Y-4355000D02*
X9235000Y-4385000D01*
X9235000Y-4355000D02*
X9205000Y-4385000D01*
D11*
X6378872Y-10093389D02*
X6378872Y-9893389D01*
X6378872Y-9893389D02*
X6426491Y-9893389D01*
X6426491Y-9893389D02*
X6455062Y-9902913D01*
X6455062Y-9902913D02*
X6474110Y-9921960D01*
X6474110Y-9921960D02*
X6483634Y-9941008D01*
X6483634Y-9941008D02*
X6493157Y-9979103D01*
X6493157Y-9979103D02*
X6493157Y-10007675D01*
X6493157Y-10007675D02*
X6483634Y-10045770D01*
X6483634Y-10045770D02*
X6474110Y-10064817D01*
X6474110Y-10064817D02*
X6455062Y-10083865D01*
X6455062Y-10083865D02*
X6426491Y-10093389D01*
X6426491Y-10093389D02*
X6378872Y-10093389D01*
X6578872Y-10093389D02*
X6578872Y-9960055D01*
X6578872Y-9998151D02*
X6588396Y-9979103D01*
X6588396Y-9979103D02*
X6597919Y-9969579D01*
X6597919Y-9969579D02*
X6616967Y-9960055D01*
X6616967Y-9960055D02*
X6636015Y-9960055D01*
X6702681Y-10093389D02*
X6702681Y-9960055D01*
X6702681Y-9893389D02*
X6693157Y-9902913D01*
X6693157Y-9902913D02*
X6702681Y-9912436D01*
X6702681Y-9912436D02*
X6712205Y-9902913D01*
X6712205Y-9902913D02*
X6702681Y-9893389D01*
X6702681Y-9893389D02*
X6702681Y-9912436D01*
X6826491Y-10093389D02*
X6807443Y-10083865D01*
X6807443Y-10083865D02*
X6797919Y-10064817D01*
X6797919Y-10064817D02*
X6797919Y-9893389D01*
X6931253Y-10093389D02*
X6912205Y-10083865D01*
X6912205Y-10083865D02*
X6902681Y-10064817D01*
X6902681Y-10064817D02*
X6902681Y-9893389D01*
X7159824Y-10093389D02*
X7159824Y-9893389D01*
X7159824Y-9893389D02*
X7226491Y-10036246D01*
X7226491Y-10036246D02*
X7293157Y-9893389D01*
X7293157Y-9893389D02*
X7293157Y-10093389D01*
X7474110Y-10093389D02*
X7474110Y-9988627D01*
X7474110Y-9988627D02*
X7464586Y-9969579D01*
X7464586Y-9969579D02*
X7445538Y-9960055D01*
X7445538Y-9960055D02*
X7407443Y-9960055D01*
X7407443Y-9960055D02*
X7388396Y-9969579D01*
X7474110Y-10083865D02*
X7455062Y-10093389D01*
X7455062Y-10093389D02*
X7407443Y-10093389D01*
X7407443Y-10093389D02*
X7388396Y-10083865D01*
X7388396Y-10083865D02*
X7378872Y-10064817D01*
X7378872Y-10064817D02*
X7378872Y-10045770D01*
X7378872Y-10045770D02*
X7388396Y-10026722D01*
X7388396Y-10026722D02*
X7407443Y-10017198D01*
X7407443Y-10017198D02*
X7455062Y-10017198D01*
X7455062Y-10017198D02*
X7474110Y-10007675D01*
X7569348Y-9960055D02*
X7569348Y-10160055D01*
X7569348Y-9969579D02*
X7588396Y-9960055D01*
X7588396Y-9960055D02*
X7626491Y-9960055D01*
X7626491Y-9960055D02*
X7645538Y-9969579D01*
X7645538Y-9969579D02*
X7655062Y-9979103D01*
X7655062Y-9979103D02*
X7664586Y-9998151D01*
X7664586Y-9998151D02*
X7664586Y-10055294D01*
X7664586Y-10055294D02*
X7655062Y-10074341D01*
X7655062Y-10074341D02*
X7645538Y-10083865D01*
X7645538Y-10083865D02*
X7626491Y-10093389D01*
X7626491Y-10093389D02*
X7588396Y-10093389D01*
X7588396Y-10093389D02*
X7569348Y-10083865D01*
X7750300Y-10074341D02*
X7759824Y-10083865D01*
X7759824Y-10083865D02*
X7750300Y-10093389D01*
X7750300Y-10093389D02*
X7740777Y-10083865D01*
X7740777Y-10083865D02*
X7750300Y-10074341D01*
X7750300Y-10074341D02*
X7750300Y-10093389D01*
X7750300Y-9969579D02*
X7759824Y-9979103D01*
X7759824Y-9979103D02*
X7750300Y-9988627D01*
X7750300Y-9988627D02*
X7740777Y-9979103D01*
X7740777Y-9979103D02*
X7750300Y-9969579D01*
X7750300Y-9969579D02*
X7750300Y-9988627D01*
D12*
X6088095Y-10406905D02*
X6118095Y-10436905D01*
X6118095Y-10406905D02*
X6088095Y-10436905D01*
D11*
X6416967Y-10313389D02*
X6436015Y-10313389D01*
X6436015Y-10313389D02*
X6455062Y-10322913D01*
X6455062Y-10322913D02*
X6464586Y-10332436D01*
X6464586Y-10332436D02*
X6474110Y-10351484D01*
X6474110Y-10351484D02*
X6483634Y-10389579D01*
X6483634Y-10389579D02*
X6483634Y-10437198D01*
X6483634Y-10437198D02*
X6474110Y-10475294D01*
X6474110Y-10475294D02*
X6464586Y-10494341D01*
X6464586Y-10494341D02*
X6455062Y-10503865D01*
X6455062Y-10503865D02*
X6436015Y-10513389D01*
X6436015Y-10513389D02*
X6416967Y-10513389D01*
X6416967Y-10513389D02*
X6397919Y-10503865D01*
X6397919Y-10503865D02*
X6388396Y-10494341D01*
X6388396Y-10494341D02*
X6378872Y-10475294D01*
X6378872Y-10475294D02*
X6369348Y-10437198D01*
X6369348Y-10437198D02*
X6369348Y-10389579D01*
X6369348Y-10389579D02*
X6378872Y-10351484D01*
X6378872Y-10351484D02*
X6388396Y-10332436D01*
X6388396Y-10332436D02*
X6397919Y-10322913D01*
X6397919Y-10322913D02*
X6416967Y-10313389D01*
X6569348Y-10494341D02*
X6578872Y-10503865D01*
X6578872Y-10503865D02*
X6569348Y-10513389D01*
X6569348Y-10513389D02*
X6559824Y-10503865D01*
X6559824Y-10503865D02*
X6569348Y-10494341D01*
X6569348Y-10494341D02*
X6569348Y-10513389D01*
X6645538Y-10313389D02*
X6769348Y-10313389D01*
X6769348Y-10313389D02*
X6702681Y-10389579D01*
X6702681Y-10389579D02*
X6731253Y-10389579D01*
X6731253Y-10389579D02*
X6750300Y-10399103D01*
X6750300Y-10399103D02*
X6759824Y-10408627D01*
X6759824Y-10408627D02*
X6769348Y-10427675D01*
X6769348Y-10427675D02*
X6769348Y-10475294D01*
X6769348Y-10475294D02*
X6759824Y-10494341D01*
X6759824Y-10494341D02*
X6750300Y-10503865D01*
X6750300Y-10503865D02*
X6731253Y-10513389D01*
X6731253Y-10513389D02*
X6674110Y-10513389D01*
X6674110Y-10513389D02*
X6655062Y-10503865D01*
X6655062Y-10503865D02*
X6645538Y-10494341D01*
X6893157Y-10313389D02*
X6912205Y-10313389D01*
X6912205Y-10313389D02*
X6931253Y-10322913D01*
X6931253Y-10322913D02*
X6940777Y-10332436D01*
X6940777Y-10332436D02*
X6950300Y-10351484D01*
X6950300Y-10351484D02*
X6959824Y-10389579D01*
X6959824Y-10389579D02*
X6959824Y-10437198D01*
X6959824Y-10437198D02*
X6950300Y-10475294D01*
X6950300Y-10475294D02*
X6940777Y-10494341D01*
X6940777Y-10494341D02*
X6931253Y-10503865D01*
X6931253Y-10503865D02*
X6912205Y-10513389D01*
X6912205Y-10513389D02*
X6893157Y-10513389D01*
X6893157Y-10513389D02*
X6874110Y-10503865D01*
X6874110Y-10503865D02*
X6864586Y-10494341D01*
X6864586Y-10494341D02*
X6855062Y-10475294D01*
X6855062Y-10475294D02*
X6845538Y-10437198D01*
X6845538Y-10437198D02*
X6845538Y-10389579D01*
X6845538Y-10389579D02*
X6855062Y-10351484D01*
X6855062Y-10351484D02*
X6864586Y-10332436D01*
X6864586Y-10332436D02*
X6874110Y-10322913D01*
X6874110Y-10322913D02*
X6893157Y-10313389D01*
X7083634Y-10313389D02*
X7102681Y-10313389D01*
X7102681Y-10313389D02*
X7121729Y-10322913D01*
X7121729Y-10322913D02*
X7131253Y-10332436D01*
X7131253Y-10332436D02*
X7140777Y-10351484D01*
X7140777Y-10351484D02*
X7150300Y-10389579D01*
X7150300Y-10389579D02*
X7150300Y-10437198D01*
X7150300Y-10437198D02*
X7140777Y-10475294D01*
X7140777Y-10475294D02*
X7131253Y-10494341D01*
X7131253Y-10494341D02*
X7121729Y-10503865D01*
X7121729Y-10503865D02*
X7102681Y-10513389D01*
X7102681Y-10513389D02*
X7083634Y-10513389D01*
X7083634Y-10513389D02*
X7064586Y-10503865D01*
X7064586Y-10503865D02*
X7055062Y-10494341D01*
X7055062Y-10494341D02*
X7045538Y-10475294D01*
X7045538Y-10475294D02*
X7036015Y-10437198D01*
X7036015Y-10437198D02*
X7036015Y-10389579D01*
X7036015Y-10389579D02*
X7045538Y-10351484D01*
X7045538Y-10351484D02*
X7055062Y-10332436D01*
X7055062Y-10332436D02*
X7064586Y-10322913D01*
X7064586Y-10322913D02*
X7083634Y-10313389D01*
X7236015Y-10513389D02*
X7236015Y-10380055D01*
X7236015Y-10399103D02*
X7245538Y-10389579D01*
X7245538Y-10389579D02*
X7264586Y-10380055D01*
X7264586Y-10380055D02*
X7293158Y-10380055D01*
X7293158Y-10380055D02*
X7312205Y-10389579D01*
X7312205Y-10389579D02*
X7321729Y-10408627D01*
X7321729Y-10408627D02*
X7321729Y-10513389D01*
X7321729Y-10408627D02*
X7331253Y-10389579D01*
X7331253Y-10389579D02*
X7350300Y-10380055D01*
X7350300Y-10380055D02*
X7378872Y-10380055D01*
X7378872Y-10380055D02*
X7397919Y-10389579D01*
X7397919Y-10389579D02*
X7407443Y-10408627D01*
X7407443Y-10408627D02*
X7407443Y-10513389D01*
X7502681Y-10513389D02*
X7502681Y-10380055D01*
X7502681Y-10399103D02*
X7512205Y-10389579D01*
X7512205Y-10389579D02*
X7531253Y-10380055D01*
X7531253Y-10380055D02*
X7559824Y-10380055D01*
X7559824Y-10380055D02*
X7578872Y-10389579D01*
X7578872Y-10389579D02*
X7588396Y-10408627D01*
X7588396Y-10408627D02*
X7588396Y-10513389D01*
X7588396Y-10408627D02*
X7597919Y-10389579D01*
X7597919Y-10389579D02*
X7616967Y-10380055D01*
X7616967Y-10380055D02*
X7645538Y-10380055D01*
X7645538Y-10380055D02*
X7664586Y-10389579D01*
X7664586Y-10389579D02*
X7674110Y-10408627D01*
X7674110Y-10408627D02*
X7674110Y-10513389D01*
X8064586Y-10303865D02*
X7893158Y-10561008D01*
X8321729Y-10313389D02*
X8340777Y-10313389D01*
X8340777Y-10313389D02*
X8359824Y-10322913D01*
X8359824Y-10322913D02*
X8369348Y-10332436D01*
X8369348Y-10332436D02*
X8378872Y-10351484D01*
X8378872Y-10351484D02*
X8388396Y-10389579D01*
X8388396Y-10389579D02*
X8388396Y-10437198D01*
X8388396Y-10437198D02*
X8378872Y-10475294D01*
X8378872Y-10475294D02*
X8369348Y-10494341D01*
X8369348Y-10494341D02*
X8359824Y-10503865D01*
X8359824Y-10503865D02*
X8340777Y-10513389D01*
X8340777Y-10513389D02*
X8321729Y-10513389D01*
X8321729Y-10513389D02*
X8302681Y-10503865D01*
X8302681Y-10503865D02*
X8293158Y-10494341D01*
X8293158Y-10494341D02*
X8283634Y-10475294D01*
X8283634Y-10475294D02*
X8274110Y-10437198D01*
X8274110Y-10437198D02*
X8274110Y-10389579D01*
X8274110Y-10389579D02*
X8283634Y-10351484D01*
X8283634Y-10351484D02*
X8293158Y-10332436D01*
X8293158Y-10332436D02*
X8302681Y-10322913D01*
X8302681Y-10322913D02*
X8321729Y-10313389D01*
X8474110Y-10494341D02*
X8483634Y-10503865D01*
X8483634Y-10503865D02*
X8474110Y-10513389D01*
X8474110Y-10513389D02*
X8464586Y-10503865D01*
X8464586Y-10503865D02*
X8474110Y-10494341D01*
X8474110Y-10494341D02*
X8474110Y-10513389D01*
X8607443Y-10313389D02*
X8626491Y-10313389D01*
X8626491Y-10313389D02*
X8645539Y-10322913D01*
X8645539Y-10322913D02*
X8655063Y-10332436D01*
X8655063Y-10332436D02*
X8664586Y-10351484D01*
X8664586Y-10351484D02*
X8674110Y-10389579D01*
X8674110Y-10389579D02*
X8674110Y-10437198D01*
X8674110Y-10437198D02*
X8664586Y-10475294D01*
X8664586Y-10475294D02*
X8655063Y-10494341D01*
X8655063Y-10494341D02*
X8645539Y-10503865D01*
X8645539Y-10503865D02*
X8626491Y-10513389D01*
X8626491Y-10513389D02*
X8607443Y-10513389D01*
X8607443Y-10513389D02*
X8588396Y-10503865D01*
X8588396Y-10503865D02*
X8578872Y-10494341D01*
X8578872Y-10494341D02*
X8569348Y-10475294D01*
X8569348Y-10475294D02*
X8559824Y-10437198D01*
X8559824Y-10437198D02*
X8559824Y-10389579D01*
X8559824Y-10389579D02*
X8569348Y-10351484D01*
X8569348Y-10351484D02*
X8578872Y-10332436D01*
X8578872Y-10332436D02*
X8588396Y-10322913D01*
X8588396Y-10322913D02*
X8607443Y-10313389D01*
X8864586Y-10513389D02*
X8750301Y-10513389D01*
X8807443Y-10513389D02*
X8807443Y-10313389D01*
X8807443Y-10313389D02*
X8788396Y-10341960D01*
X8788396Y-10341960D02*
X8769348Y-10361008D01*
X8769348Y-10361008D02*
X8750301Y-10370532D01*
X9055063Y-10513389D02*
X8940777Y-10513389D01*
X8997920Y-10513389D02*
X8997920Y-10313389D01*
X8997920Y-10313389D02*
X8978872Y-10341960D01*
X8978872Y-10341960D02*
X8959824Y-10361008D01*
X8959824Y-10361008D02*
X8940777Y-10370532D01*
X9169348Y-10399103D02*
X9150301Y-10389579D01*
X9150301Y-10389579D02*
X9140777Y-10380055D01*
X9140777Y-10380055D02*
X9131253Y-10361008D01*
X9131253Y-10361008D02*
X9131253Y-10351484D01*
X9131253Y-10351484D02*
X9140777Y-10332436D01*
X9140777Y-10332436D02*
X9150301Y-10322913D01*
X9150301Y-10322913D02*
X9169348Y-10313389D01*
X9169348Y-10313389D02*
X9207444Y-10313389D01*
X9207444Y-10313389D02*
X9226491Y-10322913D01*
X9226491Y-10322913D02*
X9236015Y-10332436D01*
X9236015Y-10332436D02*
X9245539Y-10351484D01*
X9245539Y-10351484D02*
X9245539Y-10361008D01*
X9245539Y-10361008D02*
X9236015Y-10380055D01*
X9236015Y-10380055D02*
X9226491Y-10389579D01*
X9226491Y-10389579D02*
X9207444Y-10399103D01*
X9207444Y-10399103D02*
X9169348Y-10399103D01*
X9169348Y-10399103D02*
X9150301Y-10408627D01*
X9150301Y-10408627D02*
X9140777Y-10418151D01*
X9140777Y-10418151D02*
X9131253Y-10437198D01*
X9131253Y-10437198D02*
X9131253Y-10475294D01*
X9131253Y-10475294D02*
X9140777Y-10494341D01*
X9140777Y-10494341D02*
X9150301Y-10503865D01*
X9150301Y-10503865D02*
X9169348Y-10513389D01*
X9169348Y-10513389D02*
X9207444Y-10513389D01*
X9207444Y-10513389D02*
X9226491Y-10503865D01*
X9226491Y-10503865D02*
X9236015Y-10494341D01*
X9236015Y-10494341D02*
X9245539Y-10475294D01*
X9245539Y-10475294D02*
X9245539Y-10437198D01*
X9245539Y-10437198D02*
X9236015Y-10418151D01*
X9236015Y-10418151D02*
X9226491Y-10408627D01*
X9226491Y-10408627D02*
X9207444Y-10399103D01*
X9321729Y-10313389D02*
X9321729Y-10351484D01*
X9397920Y-10313389D02*
X9397920Y-10351484D01*
X9693158Y-10589579D02*
X9683634Y-10580055D01*
X9683634Y-10580055D02*
X9664586Y-10551484D01*
X9664586Y-10551484D02*
X9655063Y-10532436D01*
X9655063Y-10532436D02*
X9645539Y-10503865D01*
X9645539Y-10503865D02*
X9636015Y-10456246D01*
X9636015Y-10456246D02*
X9636015Y-10418151D01*
X9636015Y-10418151D02*
X9645539Y-10370532D01*
X9645539Y-10370532D02*
X9655063Y-10341960D01*
X9655063Y-10341960D02*
X9664586Y-10322913D01*
X9664586Y-10322913D02*
X9683634Y-10294341D01*
X9683634Y-10294341D02*
X9693158Y-10284817D01*
X9778872Y-10513389D02*
X9816967Y-10513389D01*
X9816967Y-10513389D02*
X9836015Y-10503865D01*
X9836015Y-10503865D02*
X9845539Y-10494341D01*
X9845539Y-10494341D02*
X9864586Y-10465770D01*
X9864586Y-10465770D02*
X9874110Y-10427675D01*
X9874110Y-10427675D02*
X9874110Y-10351484D01*
X9874110Y-10351484D02*
X9864586Y-10332436D01*
X9864586Y-10332436D02*
X9855063Y-10322913D01*
X9855063Y-10322913D02*
X9836015Y-10313389D01*
X9836015Y-10313389D02*
X9797920Y-10313389D01*
X9797920Y-10313389D02*
X9778872Y-10322913D01*
X9778872Y-10322913D02*
X9769348Y-10332436D01*
X9769348Y-10332436D02*
X9759825Y-10351484D01*
X9759825Y-10351484D02*
X9759825Y-10399103D01*
X9759825Y-10399103D02*
X9769348Y-10418151D01*
X9769348Y-10418151D02*
X9778872Y-10427675D01*
X9778872Y-10427675D02*
X9797920Y-10437198D01*
X9797920Y-10437198D02*
X9836015Y-10437198D01*
X9836015Y-10437198D02*
X9855063Y-10427675D01*
X9855063Y-10427675D02*
X9864586Y-10418151D01*
X9864586Y-10418151D02*
X9874110Y-10399103D01*
X10112206Y-10513389D02*
X10112206Y-10313389D01*
X10197920Y-10513389D02*
X10197920Y-10408627D01*
X10197920Y-10408627D02*
X10188396Y-10389579D01*
X10188396Y-10389579D02*
X10169348Y-10380055D01*
X10169348Y-10380055D02*
X10140777Y-10380055D01*
X10140777Y-10380055D02*
X10121729Y-10389579D01*
X10121729Y-10389579D02*
X10112206Y-10399103D01*
X10321729Y-10513389D02*
X10302682Y-10503865D01*
X10302682Y-10503865D02*
X10293158Y-10494341D01*
X10293158Y-10494341D02*
X10283634Y-10475294D01*
X10283634Y-10475294D02*
X10283634Y-10418151D01*
X10283634Y-10418151D02*
X10293158Y-10399103D01*
X10293158Y-10399103D02*
X10302682Y-10389579D01*
X10302682Y-10389579D02*
X10321729Y-10380055D01*
X10321729Y-10380055D02*
X10350301Y-10380055D01*
X10350301Y-10380055D02*
X10369348Y-10389579D01*
X10369348Y-10389579D02*
X10378872Y-10399103D01*
X10378872Y-10399103D02*
X10388396Y-10418151D01*
X10388396Y-10418151D02*
X10388396Y-10475294D01*
X10388396Y-10475294D02*
X10378872Y-10494341D01*
X10378872Y-10494341D02*
X10369348Y-10503865D01*
X10369348Y-10503865D02*
X10350301Y-10513389D01*
X10350301Y-10513389D02*
X10321729Y-10513389D01*
X10502682Y-10513389D02*
X10483634Y-10503865D01*
X10483634Y-10503865D02*
X10474110Y-10484817D01*
X10474110Y-10484817D02*
X10474110Y-10313389D01*
X10655063Y-10503865D02*
X10636015Y-10513389D01*
X10636015Y-10513389D02*
X10597920Y-10513389D01*
X10597920Y-10513389D02*
X10578872Y-10503865D01*
X10578872Y-10503865D02*
X10569348Y-10484817D01*
X10569348Y-10484817D02*
X10569348Y-10408627D01*
X10569348Y-10408627D02*
X10578872Y-10389579D01*
X10578872Y-10389579D02*
X10597920Y-10380055D01*
X10597920Y-10380055D02*
X10636015Y-10380055D01*
X10636015Y-10380055D02*
X10655063Y-10389579D01*
X10655063Y-10389579D02*
X10664587Y-10408627D01*
X10664587Y-10408627D02*
X10664587Y-10427675D01*
X10664587Y-10427675D02*
X10569348Y-10446722D01*
X10740777Y-10503865D02*
X10759825Y-10513389D01*
X10759825Y-10513389D02*
X10797920Y-10513389D01*
X10797920Y-10513389D02*
X10816968Y-10503865D01*
X10816968Y-10503865D02*
X10826491Y-10484817D01*
X10826491Y-10484817D02*
X10826491Y-10475294D01*
X10826491Y-10475294D02*
X10816968Y-10456246D01*
X10816968Y-10456246D02*
X10797920Y-10446722D01*
X10797920Y-10446722D02*
X10769348Y-10446722D01*
X10769348Y-10446722D02*
X10750301Y-10437198D01*
X10750301Y-10437198D02*
X10740777Y-10418151D01*
X10740777Y-10418151D02*
X10740777Y-10408627D01*
X10740777Y-10408627D02*
X10750301Y-10389579D01*
X10750301Y-10389579D02*
X10769348Y-10380055D01*
X10769348Y-10380055D02*
X10797920Y-10380055D01*
X10797920Y-10380055D02*
X10816968Y-10389579D01*
X10893158Y-10589579D02*
X10902682Y-10580055D01*
X10902682Y-10580055D02*
X10921729Y-10551484D01*
X10921729Y-10551484D02*
X10931253Y-10532436D01*
X10931253Y-10532436D02*
X10940777Y-10503865D01*
X10940777Y-10503865D02*
X10950301Y-10456246D01*
X10950301Y-10456246D02*
X10950301Y-10418151D01*
X10950301Y-10418151D02*
X10940777Y-10370532D01*
X10940777Y-10370532D02*
X10931253Y-10341960D01*
X10931253Y-10341960D02*
X10921729Y-10322913D01*
X10921729Y-10322913D02*
X10902682Y-10294341D01*
X10902682Y-10294341D02*
X10893158Y-10284817D01*
M02*
